PathFileType	4	(X/Y/Z)	C:\Users\Owen\Repositories\CapacitiveSensingKinematics\CSOptimalControl\OutputData\FilteredIMUAccels.trc
DataRate	CameraRate	NumFrames	NumMarkers	Units	OrigDataRate	OrigDataStartFrame	OrigNumFrames
100	100	26	8	m	100	882	7057
Frame#	Time	/bodyset/torso/torso_imu_offset			/bodyset/pelvis/pelvis_imu_offset			/bodyset/tibia_r/tibia_r_imu_offset			/bodyset/femur_r/femur_r_imu_offset			/bodyset/tibia_l/tibia_l_imu_offset			/bodyset/femur_l/femur_l_imu_offset			/bodyset/toes_r/toes_r_imu_offset			/bodyset/toes_l/toes_l_imu_offset			
		X1	Y1	Z1	X2	Y2	Z2	X3	Y3	Z3	X4	Y4	Z4	X5	Y5	Z5	X6	Y6	Z6	X7	Y7	Z7	X8	Y8	Z8	

883	8.82	7.518423354581751	0.4885970969372713	6.798868145658705	9.107861643993408	-1.617035609502102	2.272803752998258	4.472619532097966	3.32116103828553	4.193841008855022	7.522499174429921	-2.542242613604387	2.200063314888746	9.338143120617088	-0.3664136540268017	0.02684440316502461	8.999937435167617	1.016015567770452	-1.705639981727371	4.619126482322582	5.275459784773057	10.30537429680916	3.673410366151711	1.59318930025757	11.62175763727831	
884	8.83	7.489976755188514	0.5136268351138427	6.745353834408739	9.067913544161334	-1.533445117301026	2.31522970753571	4.802701120560152	3.446137106357988	3.854290070414086	7.362358975056979	-2.58121064855645	2.242839903366724	9.354177010827796	-0.696990962193113	0.05956476309763042	9.004987986941781	0.9097399836049785	-1.53613659200927	4.629572863968024	5.647215295688919	9.883431406885059	3.675855530195728	1.563822006218299	11.6071068221999	
885	8.84	7.505642818283901	0.5620978523403596	6.740022055888481	9.010070431903326	-1.398886537814046	2.345081842488486	5.176821402808816	3.680036901862311	3.582766626138841	7.273539033203212	-2.612823258957177	2.29871632669004	9.384150344562023	-0.8215509299377431	0.195125002728412	9.065440584850743	0.688689871351047	-1.438443446906832	4.805486419203302	5.469203491858611	9.513881819180764	3.652664887001062	1.511858398742382	11.608171162264	
886	8.85	7.546073702505297	0.6311232062479151	6.775356904076795	8.928908238464977	-1.253082413091422	2.351689943076505	5.564833615828083	4.042667308941343	3.423242201966994	7.235672180387009	-2.604848992511572	2.367307613774238	9.418750782985642	-0.8101173074044852	0.4015883083478314	9.159193065029953	0.4212342589534834	-1.432107787206253	5.167637266090563	4.9234276531826	9.315282643037307	3.60551826104617	1.44741024556884	11.62892692260787	
887	8.859999999999999	7.605243716030666	0.7149053743990954	6.838865736932235	8.831418078622816	-1.130293391252399	2.328363472920597	5.961001861914053	4.554183674963809	3.379701692385374	7.224065609319114	-2.534791486167531	2.442647598658163	9.455384624556952	-0.7659426038537536	0.6287462689093405	9.25577668490023	0.1656249171310264	-1.517978341213991	5.673967040526987	4.198618173022339	9.343544822465203	3.565793638338712	1.376819767154849	11.66632015969881	
888	8.869999999999999	7.688289840641039	0.8037195334905947	6.918280584723552	8.736628326308303	-1.054708686554739	2.272818724074392	6.374255118854289	5.215894428302841	3.40524173986283	7.217233982938498	-2.403415922328953	2.515079106621018	9.494171026517119	-0.7691955212626528	0.8326932026214884	9.326080931218934	-0.04004352177081288	-1.674178163203474	6.279996294676751	3.421631235436299	9.607331079728402	3.561395258964978	1.298782893926008	11.71169636230734	
889	8.880000000000001	7.799048244221402	0.884260128409978	7.00282574161709	8.668325871682761	-1.039027095648488	2.187457109657841	6.805662947855784	5.967206330008574	3.43210675698517	7.201237874836177	-2.238169774353959	2.57995630800003	9.532512119408795	-0.8556351779190483	0.9919322578991782	9.355066186355455	-0.1820880559028769	-1.862794669198287	6.97247385261171	2.659986914490193	10.08441538987602	3.579787414709255	1.213850400358714	11.75932327887902	
890	8.890000000000001	7.928283348731653	0.9431628302069955	7.084343375704182	8.645218457673275	-1.085652644141462	2.079390903733593	7.23180849998819	6.647392673832603	3.419657428815135	7.172422307506774	-2.081646695426941	2.643767868930822	9.565188707629334	-1.019814337039349	1.098793387580813	9.34878908641091	-0.2727422676855538	-2.041225871145524	7.768614185177535	1.961614260493957	10.72564018745943	3.582983414413809	1.131888948434617	11.80701165438165	
891	8.9	8.05438716382934	0.9714451883819752	7.158890479330061	8.675056940683371	-1.187526814864031	1.959437528845354	7.616630656697883	6.998666018427739	3.390580276790422	7.138599846497597	-1.97573514491284	2.719997318376616	9.590252493722895	-1.225857379041151	1.144346098429192	9.328427130156093	-0.3403133915610075	-2.174197518456818	8.703353512862323	1.372276611642797	11.45621599830384	3.551834409976245	1.063923227656516	11.85014374886388	
892	8.91	8.156268216735537	0.9672513769575338	7.227044131228175	8.754497032335649	-1.327386033770299	1.840284930231995	7.945852457355834	6.742432306046274	3.422609685879067	7.117861596654254	-1.953311226561664	2.819353533639084	9.612127906544337	-1.427736801364876	1.120858884853598	9.315614776091156	-0.4120794276193792	-2.244406574454682	9.808319317999439	0.9128159756946518	12.18219203535218	3.502241845731241	1.011489802918061	11.88229946323032	
893	8.92	8.226193677798733	0.9354660159297281	7.29207632812873	8.87177019792459	-1.478864429875808	1.733838344715348	8.245914912377218	5.726062291170535	3.583174734093931	7.135665030566694	-2.034501152899942	2.94297111541219	9.636049560741316	-1.593878056843923	1.034236107245275	9.320319517899295	-0.5023727964504033	-2.257043314238707	11.07280582728691	0.5566093540311381	12.79649053617578	3.463141338723241	0.969220526882743	11.90066827501373	
894	8.93	8.271058270498878	0.8843699775888341	7.356305006879012	9.009116109615027	-1.61222975828555	1.648584838798554	8.574560430232589	4.056683678797101	3.851041911199932	7.218926338751289	-2.223417633242738	3.081171502801751	9.66141700038561	-1.717636054551519	0.9053866151406509	9.338192462131882	-0.6088563041054886	-2.234704650289899	12.40395334062797	0.2470752036638059	13.18505284444207	3.45184610125291	0.9332547293326108	11.90634600994025	
895	8.94	8.302546582403936	0.8219769636658329	7.417676886050652	9.14541461353835	-1.702791547903123	1.588576125455653	9.002814673140792	2.105287537412612	4.095389423828369	7.385549928531359	-2.508293237701059	3.217175479844896	9.683788985557573	-1.805058300964421	0.7595317994885231	9.356125838161574	-0.7167718757168381	-2.206359957813709	13.63140254367961	-0.0561146933525378	13.24519775270996	3.474235271318912	0.9017883759171651	11.89902838800573	
896	8.949999999999999	8.326891686200764	0.754787916521198	7.46987593093035	9.261239563268727	-1.737857742152895	1.553546061719033	9.589089010393177	0.3595787652330731	4.139263982740792	7.632765979219435	-2.866768327345236	3.335304621378616	9.702076317368661	-1.853341549148613	0.6171946079385088	9.360560556193303	-0.8075187465686724	-2.196897108627015	14.57591320847796	-0.3422117277687406	12.9207631477169	3.532123315136264	0.8717635070475338	11.87590949359032	
897	8.960000000000001	8.343281765624294	0.6882884076772983	7.506308809125409	9.344993015467809	-1.720705853408365	1.540778345416642	10.33819566661301	-0.7773194016644315	3.865988669507112	7.930282136337215	-3.276850158709482	3.430704760622139	9.720268803574976	-1.84288793040561	0.489242137203042	9.345341062343831	-0.8648402064838736	-2.220958100521593	15.13712495511971	-0.5471095196094321	12.23446434989651	3.611317736300407	0.8428970763439012	11.84070718810631	
898	8.970000000000001	8.349207954288191	0.6263060102370434	7.524397919713634	9.396641392599903	-1.67117092423172	1.549581720450836	11.17516078876847	-1.128269803113497	3.294062428296149	8.224240479264603	-3.733104545719204	3.514919510916624	9.742911107781229	-1.750684085214285	0.3709387421424304	9.314760993644377	-0.8758688860526966	-2.282474743065606	15.33035690444606	-0.5717030024879568	11.28436703458291	3.672061675587946	0.8245448872656624	11.80966612981668	
899	8.98	8.345839729558284	0.5691779753368671	7.527272607054688	9.427509728024946	-1.6199016299811	1.584246199466883	11.9666259025041	-0.7711994780705791	2.575644181167837	8.45502415574221	-4.259481582128808	3.6135188412261	9.772943165202673	-1.571567443582349	0.2453388117815706	9.277892883556385	-0.8289230225357835	-2.377651134436885	15.25488528954154	-0.3093788679076167	10.19247419663863	3.674705800098445	0.8307415849209701	11.800115870258	
900	8.99	8.340774526576078	0.5137080845344472	7.522605332615434	9.454468467280929	-1.596436393064121	1.651817203452384	12.56459330176061	0.02718915044099082	1.930083316956819	8.583746174622657	-4.902694449277998	3.755009127404166	9.814303787396675	-1.327755515141731	0.1030027902959968	9.241561482018062	-0.714067051097209	-2.497179622304363	15.04140162691288	0.3049740150976611	9.031672653496965	3.617405688429943	0.8652369217009011	11.81516245733641	
901	9	8.347683968037362	0.4556066418573181	7.519201290571731	9.489514025785043	-1.616488321270233	1.755978083285557	12.82800362034587	0.9145264134794915	1.539099785532568	8.616510237900162	-5.6983979021893	3.950507221002852	9.87335563086371	-1.059846393936049	-0.04425553052517721	9.207588808987042	-0.5296549091365857	-2.627391679842562	14.82086820589531	1.248339476817071	7.777578654133979	3.538832887923558	0.9149403747922067	11.84514315823244	
902	9.01	8.382068373871491	0.392302355281322	7.522571217625543	9.531746835623945	-1.674493647355424	1.891076934550602	12.64269797404143	1.539559610998194	1.447621044068677	8.61231673292137	-6.6251669282293	4.169477297549756	9.954431084817204	-0.8124122892739619	-0.1753778887470102	9.170399721242672	-0.290683226624607	-2.753121024737002	14.70425261554073	2.422719319988438	6.321782430565758	3.481402392750439	0.959997746093381	11.88019193411339	
903	9.02	8.454390606832934	0.3255852353844271	7.532403278324409	9.568143320396162	-1.747636886386272	2.040612514165431	11.98638852889663	1.62177745655264	1.557383139439766	8.658831349256655	-7.576487071017828	4.334774047655082	10.05261991818942	-0.6231989661912746	-0.281096677553683	9.119866024572392	-0.03337464180363735	-2.862862958288318	14.75598789955728	3.697810953266143	4.547239106754588	3.457221091106676	0.9898031320810359	11.91647158975204	
904	9.029999999999999	8.562729681985441	0.2638606769831428	7.543868006272039	9.58191813159779	-1.811535491141516	2.180099793496235	10.99825242115882	1.035750399130141	1.711813240258295	8.818666456524744	-8.373515498716005	4.362123475559344	10.1533869000586	-0.5093507083274669	-0.366173161738909	9.053490794786038	0.1897724929654494	-2.953960013903612	14.9821669195849	4.921798729940904	2.427290674359247	3.454106803837823	1.007944117969179	11.95317574369519	
905	9.039999999999999	8.688186744522911	0.2203380365414455	7.550461669916349	9.559626212401879	-1.856195593411094	2.280748250623915	9.953383136428554	-0.113961956117783	1.760013591854463	9.080124255393976	-8.821018801864215	4.226111941340037	10.24189131952404	-0.4569098878779287	-0.4326004247647607	8.983084496032955	0.3283766971392421	-3.034177168123168	15.34366050883103	5.925789690340766	0.09415377619116516	3.462860065437424	1.020210133151516	11.98906549978019	
906	9.050000000000001	8.798283901505805	0.2053748740258797	7.545037602720425	9.491959123857095	-1.890389065600671	2.313508354302009	9.122603470862135	-1.503040461243805	1.5987478713436	9.348950635490224	-8.785757348817036	3.990655585935937	10.3111024896067	-0.431620992155286	-0.4661605367680856	8.925173986675274	0.357423099854015	-3.114921833958102	15.75498837384491	6.539903534113478	-2.161643697315013	3.483227244121895	1.020624317945452	12.02443100279383	
907	9.06	8.859288758094539	0.2194784369462005	7.519420972317362	9.374657332789459	-1.933967367999603	2.256832851479507	8.619681197114843	-2.699743021540871	1.240839735094127	9.488421931582254	-8.256192931436166	3.765453506125995	10.35851827641266	-0.4065556265779255	-0.440497624147695	8.888220914464082	0.2863457784644824	-3.196961575351111	16.05151134146914	6.621413417488393	-3.95478619484411	3.509321960470133	0.9960324667760126	12.0646757073365	
908	9.07	8.85063862937217	0.2544267482742	7.465243180638801	9.214042828317329	-2.006722629100281	2.107378784007557	8.362044441294545	-3.323600803106261	0.8217875640334382	9.385067966202399	-7.348104392836611	3.626029290241016	10.37767779014672	-0.3814921066088285	-0.3327109779985119	8.872922534647198	0.1465886813752937	-3.260680235619815	15.97767417805835	6.12213096668594	-4.891738698100707	3.525950463330179	0.9447542345322119	12.11774632038276	
